<?xml version="1.0" encoding="UTF-8"?>
<svg width="24" height="24" viewBox="0 0 24 24" fill="none" xmlns="http://www.w3.org/2000/svg">
  <path d="M12 2C13.1 2 14 2.9 14 4C14 5.1 13.1 6 12 6C10.9 6 10 5.1 10 4C10 2.9 10.9 2 12 2Z" fill="currentColor"/>
  <path d="M18.2 4.8C19.3 4.8 20.2 5.7 20.2 6.8C20.2 7.9 19.3 8.8 18.2 8.8C17.1 8.8 16.2 7.9 16.2 6.8C16.2 5.7 17.1 4.8 18.2 4.8Z" fill="currentColor"/>
  <path d="M5.8 4.8C6.9 4.8 7.8 5.7 7.8 6.8C7.8 7.9 6.9 8.8 5.8 8.8C4.7 8.8 3.8 7.9 3.8 6.8C3.8 5.7 4.7 4.8 5.8 4.8Z" fill="currentColor"/>
  <path d="M12 7C14.8 7 17 9.2 17 12C17 14.8 14.8 17 12 17C9.2 17 7 14.8 7 12C7 9.2 9.2 7 12 7Z" fill="currentColor"/>
</svg>